<?xml version="1.0" encoding="UTF-8"?>
<svg xmlns="http://www.w3.org/2000/svg" viewBox="0 0 64 64" width="512" height="512"><g id="line_cp"><path d="M49.725,23.311C49.4,22.971,41.706,15,32,15s-17.4,7.971-17.725,8.311a1,1,0,0,0,0,1.378C14.6,25.029,22.294,33,32,33s17.4-7.971,17.725-8.311A1,1,0,0,0,49.725,23.311ZM32,17a21.472,21.472,0,0,1,11.273,3.724A40.053,40.053,0,0,0,32,19a40.023,40.023,0,0,0-11.27,1.722A21.472,21.472,0,0,1,32,17Zm1,7c0,1.936-.751,3-1,3s-1-1.064-1-3,.751-3,1-3S33,22.064,33,24Zm-16.242.282a41.292,41.292,0,0,1,6.442-2.16A9.038,9.038,0,0,0,23,24a8.945,8.945,0,0,0,1.858,5.454A30.307,30.307,0,0,1,16.758,24.282ZM32,31a6.985,6.985,0,0,1-6.584-9.359A37.069,37.069,0,0,1,29.53,21.1,7.645,7.645,0,0,0,29,24c0,2.851,1.29,5,3,5s3-2.149,3-5a7.645,7.645,0,0,0-.53-2.9,37.059,37.059,0,0,1,4.114.543A6.983,6.983,0,0,1,32,31Zm7.142-1.546a8.936,8.936,0,0,0,1.659-7.33,41.232,41.232,0,0,1,6.441,2.159A30.309,30.309,0,0,1,39.142,29.454Z"/><path d="M32,2A24.848,24.848,0,0,0,7.123,24.545c-.024.046-1.43,4.213-1.43,4.213L2.606,30.081a1,1,0,0,0,0,1.838l3.087,1.323,1.358,4.074a1,1,0,0,0,1.9,0l.119-.359a25.19,25.19,0,0,0,3.3,5.506,2.952,2.952,0,0,0-1.414,5.068L8.047,56.7a1,1,0,0,0,.624,1.246A70.661,70.661,0,0,0,32,61.983a70.661,70.661,0,0,0,23.329-4.039,1,1,0,0,0,.624-1.246l-2.908-9.167a2.945,2.945,0,0,0-1.4-5.066A25,25,0,0,0,32,2ZM8.551,32.184,8,33.838l-.551-1.654a1,1,0,0,0-.555-.6L5.539,31l1.355-.581a1,1,0,0,0,.555-.6L8,28.162l.551,1.654a1,1,0,0,0,.555.6L10.461,31l-1.355.581A1,1,0,0,0,8.551,32.184Zm45.2,24.185a67.31,67.31,0,0,1-43.5,0L12.8,48.336A112.9,112.9,0,0,0,32,49.992a112.9,112.9,0,0,0,19.2-1.656Zm-2.09-11.748a.94.94,0,0,1,.339.731.968.968,0,0,1-.8.96,110.581,110.581,0,0,1-38.409,0,.969.969,0,0,1-.8-.96.94.94,0,0,1,.339-.731.984.984,0,0,1,.639-.233,1.093,1.093,0,0,1,.17.014,112.529,112.529,0,0,0,37.7,0A.994.994,0,0,1,51.661,44.621Zm-2.849-1.938a110.515,110.515,0,0,1-33.629,0,23.1,23.1,0,0,1-5.112-8.734l.236-.706,3.087-1.323a1,1,0,0,0,0-1.838l-3.087-1.323L9.088,25.1C10.206,13.43,20.247,4,32,4A22.991,22.991,0,0,1,48.812,42.683Z"/><path d="M32,13a1,1,0,0,0,1-1V8a1,1,0,0,0-2,0v4A1,1,0,0,0,32,13Z"/><path d="M23.134,14.375a1,1,0,1,0,1.732-1l-2-3.463a1,1,0,1,0-1.732,1Z"/><path d="M39.5,14.742a1,1,0,0,0,1.366-.367l2-3.463a1,1,0,1,0-1.732-1l-2,3.463A1,1,0,0,0,39.5,14.742Z"/><path d="M32,35a1,1,0,0,0-1,1v4a1,1,0,0,0,2,0V36A1,1,0,0,0,32,35Z"/><path d="M24.5,33.258a1,1,0,0,0-1.366.367l-2,3.463a1,1,0,1,0,1.732,1l2-3.463A1,1,0,0,0,24.5,33.258Z"/><path d="M40.866,33.625a1,1,0,1,0-1.732,1l2,3.463a1,1,0,1,0,1.732-1Z"/><path d="M61.394,8.081,58.307,6.758,56.949,2.684a1,1,0,0,0-1.9,0L53.693,6.758,50.606,8.081a1,1,0,0,0,0,1.838l3.087,1.323,1.358,4.074a1,1,0,0,0,1.9,0l1.358-4.074,3.087-1.323a1,1,0,0,0,0-1.838Zm-4.288,1.5a1,1,0,0,0-.555.6L56,11.838l-.551-1.654a1,1,0,0,0-.555-.6L53.539,9l1.355-.581a1,1,0,0,0,.555-.6L56,6.162l.551,1.654a1,1,0,0,0,.555.6L58.461,9Z"/></g></svg>
