<svg height="512" viewBox="0 0 64 64" width="512" xmlns="http://www.w3.org/2000/svg"><g id="line_cp"><path d="m32 13a19 19 0 1 0 19 19 19.021 19.021 0 0 0 -19-19zm0 36a17 17 0 1 1 17-17 17.019 17.019 0 0 1 -17 17z"/><path d="m41.079 42.8a11 11 0 1 1 0-21.594 1 1 0 0 0 .808-1.767 15.827 15.827 0 0 0 -9.887-3.439 16 16 0 0 0 0 32 15.829 15.829 0 0 0 9.887-3.436 1 1 0 0 0 -.808-1.767zm-9.079 3.2a14 14 0 0 1 0-28 13.838 13.838 0 0 1 5.428 1.1 13 13 0 0 0 0 25.81 13.842 13.842 0 0 1 -5.428 1.09z"/><path d="m32 12a1 1 0 0 0 1-1v-8a1 1 0 0 0 -2 0v8a1 1 0 0 0 1 1z"/><path d="m25.6 11.974a1 1 0 0 0 .964.742.974.974 0 0 0 .26-.035 1 1 0 0 0 .707-1.224l-1.031-3.864a1 1 0 0 0 -1.932.518z"/><path d="m16.443 17.857a1 1 0 0 0 1.414-1.414l-2.828-2.828a1 1 0 1 0 -1.414 1.414z"/><path d="m11.974 25.6-3.864-1.037a1 1 0 0 0 -.517 1.937l3.863 1.036a1.015 1.015 0 0 0 .26.034 1 1 0 0 0 .258-1.966z"/><path d="m11.456 36.47-3.863 1.035a1 1 0 1 0 .517 1.932l3.864-1.037a1 1 0 1 0 -.518-1.931z"/><path d="m17.857 46.143a1 1 0 0 0 -1.414 0l-2.828 2.828a1 1 0 1 0 1.414 1.414l2.828-2.828a1 1 0 0 0 0-1.414z"/><path d="m26.823 51.319a1 1 0 0 0 -1.224.707l-1.036 3.864a1 1 0 0 0 .708 1.224.96.96 0 0 0 .259.034 1 1 0 0 0 .965-.741l1.035-3.863a1 1 0 0 0 -.707-1.225z"/><path d="m38.4 52.026a1 1 0 1 0 -1.931.518l1.035 3.863a1 1 0 0 0 .965.741.96.96 0 0 0 .259-.034 1 1 0 0 0 .708-1.224z"/><path d="m47.557 46.143a1 1 0 0 0 -1.414 1.414l2.828 2.828a1 1 0 0 0 1.414-1.414z"/><path d="m52.026 38.4 3.864 1.036a1 1 0 0 0 .517-1.932l-3.863-1.034a1 1 0 1 0 -.518 1.931z"/><path d="m52.544 27.531 3.863-1.031a1 1 0 0 0 -.517-1.932l-3.864 1.032a1 1 0 0 0 .258 1.966 1.015 1.015 0 0 0 .26-.035z"/><path d="m46.143 17.857a1 1 0 0 0 1.414 0l2.828-2.828a1 1 0 1 0 -1.414-1.414l-2.828 2.828a1 1 0 0 0 0 1.414z"/><path d="m37.177 12.681a.974.974 0 0 0 .26.035 1 1 0 0 0 .964-.742l1.036-3.863a1 1 0 0 0 -1.932-.518l-1.035 3.864a1 1 0 0 0 .707 1.224z"/><path d="m20.634 14.313a1 1 0 1 0 1.732-1l-4-6.928a1 1 0 0 0 -1.732 1z"/><path d="m6.386 18.366 6.927 4a1 1 0 1 0 1-1.732l-6.927-4a1 1 0 0 0 -1 1.732z"/><path d="m12 32a1 1 0 0 0 -1-1h-8a1 1 0 0 0 0 2h8a1 1 0 0 0 1-1z"/><path d="m14.68 42a1 1 0 0 0 -1.367-.366l-6.927 4a1 1 0 1 0 1 1.732l6.927-4a1 1 0 0 0 .367-1.366z"/><path d="m22 49.32a1 1 0 0 0 -1.366.367l-4 6.927a1 1 0 1 0 1.732 1l4-6.927a1 1 0 0 0 -.366-1.367z"/><path d="m32 52a1 1 0 0 0 -1 1v8a1 1 0 0 0 2 0v-8a1 1 0 0 0 -1-1z"/><path d="m43.366 49.687a1 1 0 1 0 -1.732 1l4 6.927a1 1 0 0 0 1.732-1z"/><path d="m57.614 45.634-6.927-4a1 1 0 1 0 -1 1.732l6.927 4a1 1 0 0 0 1-1.732z"/><path d="m61 31h-8a1 1 0 0 0 0 2h8a1 1 0 0 0 0-2z"/><path d="m49.32 22a1 1 0 0 0 1.367.366l6.927-4a1 1 0 0 0 -1-1.732l-6.927 4a1 1 0 0 0 -.367 1.366z"/><path d="m42 14.68a1 1 0 0 0 1.366-.367l4-6.928a1 1 0 0 0 -1.732-1l-4 6.928a1 1 0 0 0 .366 1.367z"/></g></svg>