<?xml version="1.0" encoding="UTF-8"?>
<svg xmlns="http://www.w3.org/2000/svg" viewBox="0 0 64 64" width="512" height="512"><g id="line_cp"><path d="M60.82,48.234a2.977,2.977,0,0,0-2.609-.509l-3.111.848a25.012,25.012,0,0,0,4.767-4.556l.076-.1A2.414,2.414,0,0,0,58.058,40h-.1a2.413,2.413,0,0,0-2.372-2,5.384,5.384,0,0,0-3.443,1.247l-.749.624A2.324,2.324,0,0,0,49.058,38h-.472a2.431,2.431,0,0,0-1.707.707l-1.9,1.9a23.073,23.073,0,0,1-3.519,2.885L36.272,46.95a28.966,28.966,0,0,1-5.092-2.337L26.6,41.942a14.25,14.25,0,0,0-15.733.909L2.4,49.2A1,1,0,0,0,2,50V61a1,1,0,0,0,1,1h8a1.006,1.006,0,0,0,.641-.231l4.019-3.351a6.2,6.2,0,0,1,6.269-.947l8.311,3.463a13.87,13.87,0,0,0,10.385.113l19.452-7.612a3.014,3.014,0,0,0,.743-5.2Zm-2.389-6a.4.4,0,0,1-.047.436l-.076.094A23.081,23.081,0,0,1,53.7,47.13L50.234,49.6a2.65,2.65,0,0,0-1.414-.757l4.025-2.818A25.22,25.22,0,0,0,56.2,43.216l1.095-1.095A.417.417,0,0,1,57.586,42h.472A.4.4,0,0,1,58.431,42.234Zm-5.008-1.451A3.383,3.383,0,0,1,55.586,40a.414.414,0,0,1,.293.707L54.784,41.8A23.177,23.177,0,0,1,51.7,44.391l-5.792,4.055-2.11-.282L47.745,45.4c.58-.406,1.143-.837,1.673-1.279ZM42.569,45.155a25.1,25.1,0,0,0,3.825-3.134l1.9-1.9A.417.417,0,0,1,48.586,40h.472a.415.415,0,0,1,.324.673,23.125,23.125,0,0,1-4.79,4.492l-3.726,2.608-1.853-.247ZM59.35,51.571,39.9,59.184a11.909,11.909,0,0,1-8.886-.1L22.7,55.625a8.23,8.23,0,0,0-8.318,1.256L10.638,60H4V50.5l8.065-6.05a12.252,12.252,0,0,1,13.526-.78l4.581,2.672c.394.229.795.446,1.2.658H23a1,1,0,0,0,0,2H34.934l13.489,1.8a.665.665,0,0,1-.037,1.322l-10.91.839c-.4.03-.793.079-1.187.144l-4.43.739A11.668,11.668,0,0,1,24.8,52.781l-1.351-.676a1,1,0,0,0-.894,1.79l1.35.675A13.61,13.61,0,0,0,29.962,56a13.428,13.428,0,0,0,2.226-.185l4.429-.738q.5-.084,1.013-.123l10.909-.839a2.67,2.67,0,0,0,2.431-2.343l7.767-2.118a.984.984,0,0,1,.87.17.994.994,0,0,1,.393.794A1.016,1.016,0,0,1,59.35,51.571Z"/><path d="M24,25a12.995,12.995,0,0,0,24.268,6.469,1,1,0,0,0-1.308-1.4A8.91,8.91,0,0,1,43,31a9,9,0,0,1-4.085-17.012,1,1,0,0,0-.334-1.883A12.935,12.935,0,0,0,24,25ZM35.319,14.128a11,11,0,0,0,9.347,18.745,11,11,0,1,1-9.347-18.745Z"/><path d="M10.606,29.919l3.087,1.323,1.359,4.074a1,1,0,0,0,1.9,0l1.359-4.074,3.087-1.323a1,1,0,0,0,0-1.838l-3.087-1.323-1.359-4.074a1,1,0,0,0-1.9,0l-1.359,4.074-3.087,1.323a1,1,0,0,0,0,1.838Zm4.288-1.5a1,1,0,0,0,.554-.6L16,26.162l.552,1.654a1,1,0,0,0,.554.6L18.461,29l-1.355.581a1,1,0,0,0-.554.6L16,31.838l-.552-1.654a1,1,0,0,0-.554-.6L13.539,29Z"/><path d="M18.606,9.919l3.087,1.323,1.359,4.074a1,1,0,0,0,1.9,0l1.359-4.074,3.087-1.323a1,1,0,0,0,0-1.838L26.307,6.758,24.948,2.684a1,1,0,0,0-1.9,0L21.693,6.758,18.606,8.081a1,1,0,0,0,0,1.838Zm4.288-1.5a1,1,0,0,0,.554-.6L24,6.162l.552,1.654a1,1,0,0,0,.554.6L26.461,9l-1.355.581a1,1,0,0,0-.554.6L24,11.838l-.552-1.654a1,1,0,0,0-.554-.6L21.539,9Z"/><path d="M44.606,15.919l3.087,1.323,1.359,4.074a1,1,0,0,0,1.9,0l1.359-4.074,3.087-1.323a1,1,0,0,0,0-1.838l-3.087-1.323L50.948,8.684a1,1,0,0,0-1.9,0l-1.359,4.074-3.087,1.323a1,1,0,0,0,0,1.838Zm4.288-1.5a1,1,0,0,0,.554-.6L50,12.162l.552,1.654a1,1,0,0,0,.554.6L52.461,15l-1.355.581a1,1,0,0,0-.554.6L50,17.838l-.552-1.654a1,1,0,0,0-.554-.6L47.539,15Z"/></g></svg>
