<svg height="512" viewBox="0 0 64 64" width="512" xmlns="http://www.w3.org/2000/svg"><g id="line_cp"><path d="m17.394 44.081-3.087-1.323-1.358-4.074a1 1 0 0 0 -1.9 0l-1.356 4.074-3.087 1.323a1 1 0 0 0 0 1.838l3.087 1.323 1.358 4.074a1 1 0 0 0 1.9 0l1.358-4.074 3.087-1.323a1 1 0 0 0 0-1.838zm-4.288 1.5a1 1 0 0 0 -.555.6l-.551 1.657-.551-1.654a1 1 0 0 0 -.555-.6l-1.355-.584 1.355-.581a1 1 0 0 0 .555-.6l.551-1.657.551 1.654a1 1 0 0 0 .555.6l1.355.584z"/><path d="m40.606 17.919 3.087 1.323 1.358 4.074a1 1 0 0 0 1.9 0l1.358-4.074 3.087-1.323a1 1 0 0 0 0-1.838l-3.087-1.323-1.358-4.074a1 1 0 0 0 -1.9 0l-1.358 4.074-3.087 1.323a1 1 0 0 0 0 1.838zm4.288-1.5a1 1 0 0 0 .555-.6l.551-1.657.551 1.654a1 1 0 0 0 .555.6l1.355.584-1.355.581a1 1 0 0 0 -.555.6l-.551 1.657-.551-1.654a1 1 0 0 0 -.555-.6l-1.355-.584z"/><path d="m36 21a1 1 0 0 0 -.784-.977l-9.832-2.17-2.4-15.01a1 1 0 0 0 -1.974 0l-2.4 15.01-9.832 2.17a1 1 0 0 0 0 1.954l9.832 2.17 2.4 15.01a1 1 0 0 0 1.974 0l2.4-15.01 9.832-2.17a1 1 0 0 0 .784-.977zm-11.712 1.341a1 1 0 0 0 -.772.819l-1.516 9.496-1.516-9.5a1 1 0 0 0 -.772-.819l-6.073-1.337 6.073-1.341a1 1 0 0 0 .772-.819l1.516-9.496 1.516 9.5a1 1 0 0 0 .772.819l6.073 1.337z"/><path d="m57.263 46.035-7.909-2.157-2.376-11.088a1 1 0 0 0 -1.956 0l-2.376 11.088-7.909 2.157a1 1 0 0 0 0 1.93l7.909 2.157 2.376 11.088a1 1 0 0 0 1.956 0l2.376-11.088 7.909-2.157a1 1 0 0 0 0-1.93zm-9.023 2.318a1 1 0 0 0 -.715.754l-1.525 7.121-1.525-7.121a1 1 0 0 0 -.715-.754l-4.96-1.353 4.96-1.353a1 1 0 0 0 .715-.754l1.525-7.121 1.525 7.121a1 1 0 0 0 .715.754l4.96 1.353z"/></g></svg>