<?xml version="1.0" encoding="UTF-8"?>
<svg xmlns="http://www.w3.org/2000/svg" viewBox="0 0 64 64" width="512" height="512"><g id="line_cp"><path d="M34,18c0-6.294-5.583-16-13-16S8,11.706,8,18c0,5.854,4.505,7.309,8.324,7.766-1.961,12.143-1.822,22.407.428,31.264a6.61,6.61,0,0,0,11.694,2.323,6.533,6.533,0,0,0,1.041-5.811,118.674,118.674,0,0,1-4.342-27.717C29.192,25.424,34,24.018,34,18ZM24.037,4.72a10.7,10.7,0,0,1,2.882,2.04A1.939,1.939,0,0,1,26,7a2,2,0,0,1-2-2A1.883,1.883,0,0,1,24.037,4.72ZM22.112,4.1A3.893,3.893,0,0,0,22,5a3.98,3.98,0,0,0,6.274,3.272A17.12,17.12,0,0,1,32,18a7.914,7.914,0,0,1-.064.974c-.3-.215-.62-.422-.96-.617.011-.119.024-.238.024-.357a4,4,0,0,0-7.54-1.862A24.526,24.526,0,0,0,21,16a19.489,19.489,0,0,0-10.937,2.975A7.935,7.935,0,0,1,10,18a12.532,12.532,0,0,1,.423-3.037A5.2,5.2,0,0,0,11,15a6.006,6.006,0,0,0,6-6,5.842,5.842,0,0,0-.91-3.116A8.038,8.038,0,0,1,21,4,6.65,6.65,0,0,1,22.112,4.1Zm6.783,13.3a19.679,19.679,0,0,0-3.171-.912,1.97,1.97,0,0,1,3.171.912ZM14.58,7.272A3.871,3.871,0,0,1,15,9a4,4,0,0,1-3.944,3.994A18.11,18.11,0,0,1,14.58,7.272ZM26.844,58.155a4.61,4.61,0,0,1-8.153-1.617c-2.391-9.414-2.323-20.514.209-33.921a3.859,3.859,0,0,1,4.115-.049,124.34,124.34,0,0,0,4.554,31.541A4.552,4.552,0,0,1,26.844,58.155ZM25.07,23.823c-.023-.617-.055-1.224-.07-1.847a1,1,0,0,0-.445-.808,6.014,6.014,0,0,0-7.11,0,1,1,0,0,0-.427.644c-.128.666-.245,1.322-.361,1.978-3.1-.362-5-1.228-5.94-2.785,2.2-1.858,6.054-3,10.283-3s8.082,1.147,10.281,3C30.313,22.6,28.327,23.48,25.07,23.823Z"/><path d="M21.5,15A3.283,3.283,0,0,0,25,12a3.283,3.283,0,0,0-3.5-3A3.283,3.283,0,0,0,18,12,3.283,3.283,0,0,0,21.5,15Zm0-4c.8,0,1.5.467,1.5,1s-.7,1-1.5,1S20,12.533,20,12,20.7,11,21.5,11Z"/><path d="M45,30c2.243,0,4-1.318,4-3s-1.757-3-4-3-4,1.318-4,3S42.757,30,45,30Zm0-4c1.221,0,2,.592,2,1s-.779,1-2,1-2-.592-2-1S43.779,26,45,26Z"/><path d="M55.728,26.942a.971.971,0,0,0-.047-.17C54.539,21.819,50.337,16,45,16c-6.276,0-11,8.052-11,13.273,0,4.22,2.811,6.826,7.977,7.528-.21,7.5-1.363,13.746-3.537,19.039a4.487,4.487,0,1,0,8.4,3.139c2.186-6.361,2.793-13.857,1.837-22.272,4.751-.828,7.319-3.4,7.319-7.434a11.115,11.115,0,0,0-.274-2.316S55.728,26.947,55.728,26.942Zm-9.512-8.79a7.693,7.693,0,0,1,3.452,1.911A1.961,1.961,0,0,1,48,21a2,2,0,0,1-2-2A1.931,1.931,0,0,1,46.216,18.152Zm-2.1-.078A3.958,3.958,0,0,0,48,23a3.955,3.955,0,0,0,3.056-1.427,14.935,14.935,0,0,1,2.434,4.679A5,5,0,0,0,50,31a4.95,4.95,0,0,0,.963,2.944A14.51,14.51,0,0,1,45,35a14.784,14.784,0,0,1-5.824-1A5.928,5.928,0,0,0,36.7,25.673C37.946,22.166,40.763,18.617,44.12,18.074ZM36,29.273a9.127,9.127,0,0,1,.159-1.6A3.962,3.962,0,0,1,38,31a3.887,3.887,0,0,1-.508,1.913A4.741,4.741,0,0,1,36,29.273ZM44.953,58.33A2.488,2.488,0,0,1,42.6,60a2.456,2.456,0,0,1-2.07-1.1,2.418,2.418,0,0,1-.234-2.3c2.256-5.493,3.455-11.93,3.681-19.625.337.013.675.025,1.028.025.59,0,1.15-.026,1.7-.064C47.616,45.052,47.041,52.252,44.953,58.33Zm7.661-25.515A2.96,2.96,0,0,1,52,31a3,3,0,0,1,1.924-2.785A8.679,8.679,0,0,1,54,29.273,4.76,4.76,0,0,1,52.614,32.815Z"/><path d="M13.394,36.081l-3.087-1.323L8.949,30.684a1,1,0,0,0-1.9,0L5.693,34.758,2.606,36.081a1,1,0,0,0,0,1.838l3.087,1.323,1.358,4.074a1,1,0,0,0,1.9,0l1.358-4.074,3.087-1.323a1,1,0,0,0,0-1.838Zm-4.288,1.5a1,1,0,0,0-.555.6L8,39.838l-.551-1.654a1,1,0,0,0-.555-.6L5.539,37l1.355-.581a1,1,0,0,0,.555-.6L8,34.162l.551,1.654a1,1,0,0,0,.555.6L10.461,37Z"/><path d="M61.394,12.081l-3.087-1.323L56.949,6.684a1,1,0,0,0-1.9,0l-1.358,4.074-3.087,1.323a1,1,0,0,0,0,1.838l3.087,1.323,1.358,4.074a1,1,0,0,0,1.9,0l1.358-4.074,3.087-1.323a1,1,0,0,0,0-1.838Zm-4.288,1.5a1,1,0,0,0-.555.6L56,15.838l-.551-1.654a1,1,0,0,0-.555-.6L53.539,13l1.355-.581a1,1,0,0,0,.555-.6L56,10.162l.551,1.654a1,1,0,0,0,.555.6L58.461,13Z"/></g></svg>
