<?xml version="1.0" encoding="UTF-8"?>
<svg xmlns="http://www.w3.org/2000/svg" viewBox="0 0 64 64" width="512" height="512"><g id="line_cp"><path d="M22.93,32.077A2.473,2.473,0,0,0,24,30c0-3-3.782-13-8-13-3.863,0-8,4.7-8,8,0,3.165,2.125,5.762,5.684,6.949a19.663,19.663,0,0,0,5.722.958A6.2,6.2,0,0,0,22.93,32.077ZM10,25c0-2.28,3.352-6,6-6,2.429,0,6,8.369,6,11a.5.5,0,0,1-.24.454c-1.129.813-4.862.458-7.444-.4C11.573,29.137,10,27.3,10,25Z"/><path d="M40,19c-3.975,0-10,7.81-10,11,0,4.432,4.275,5,8,5,4.274,0,10-3.461,10-7C48,24.862,45.653,19,40,19ZM38,33c-5.536,0-6-1.548-6-3,0-2.443,5.4-9,8-9,4.24,0,6,4.559,6,7C46,29.974,41.709,33,38,33Z"/><path d="M25.6,34.2a1,1,0,0,0-1.115-.057c-3.578,2.146-5.682,4.286-6.434,6.541a1,1,0,0,0,.149.916,6.942,6.942,0,0,0,5.727,2.956A11.373,11.373,0,0,0,29.5,42.868,1,1,0,0,0,30,42,10.669,10.669,0,0,0,25.6,34.2Zm-5.454,6.624c.693-1.492,2.3-3.036,4.776-4.6a8.985,8.985,0,0,1,3.038,5.207C24.686,43.125,22,42.918,20.146,40.824Z"/><path d="M61.394,15.919a1,1,0,0,0,0-1.838l-3.087-1.323L56.949,8.684a1,1,0,0,0-1.9,0l-.845,2.535A28.925,28.925,0,0,0,33,2h0A31.036,31.036,0,0,0,2,33v5.367A15.753,15.753,0,0,0,12.266,53.146l1.073,3.712A5.027,5.027,0,0,0,17.32,60.4l6.762,1.127a34.812,34.812,0,0,0,4.827.455c.032,0,.059.018.091.018s.048-.013.074-.015c.239.005.479.015.718.015a4.968,4.968,0,0,0,4.88-3.915l.354-1.593.212.055A21.414,21.414,0,0,0,62,35.812V31a29.007,29.007,0,0,0-3.519-13.833Zm-4.843-2.1a1,1,0,0,0,.555.6L58.461,15l-1.355.581a1,1,0,0,0-.555.6L56,17.838l-.551-1.654a1,1,0,0,0-.555-.6L53.539,15l1.355-.581a1,1,0,0,0,.555-.6L56,12.162Zm3.449,22a19.414,19.414,0,0,1-24.262,18.8L34.524,54.3a1,1,0,0,0-1.226.751l-.578,2.6A2.972,2.972,0,0,1,30,59.982V56a1,1,0,0,0-2,0v3.926c-1.006-.055-2.006-.151-3-.3V55a1,1,0,0,0-2,0v4.32l-3-.5V55a1,1,0,0,0-2,0v3.486l-.351-.058A3.019,3.019,0,0,1,15.26,56.3l-1.216-4.2a1,1,0,0,0-.643-.67A13.757,13.757,0,0,1,4,38.367V33A29.034,29.034,0,0,1,33,4h0a26.932,26.932,0,0,1,20.117,9.005l-2.511,1.076a1,1,0,0,0,0,1.838l3.087,1.323,1.358,4.074a1,1,0,0,0,1.9,0l.551-1.652A27.047,27.047,0,0,1,60,31Z"/></g></svg>
